# xmcd
#
# Track frame offsets: 
#        150
#        14832
#        28575
#        44832
#        58197
#        68762
#        84815
#        103420
#        114490
#        134567
#
# Disc length: 1963 seconds
#
# Revision: 3
# Processed by: cddbd v1.5.2PL0 Copyright (c) Steve Scherf et al.
# Submitted via: ExactAudioCopy v1.0b1
#
DISCID=9207a90a
DTITLE=Various Artist - Country's Greatest Hits Vol. 5 Country Crossroads
DYEAR=1990
DGENRE=Country
TTITLE0=k.d. lang - Rose Garden
TTITLE1=Reba McEntire - Cathy's Clown
TTITLE2=Mickey Gilley - Stand By Me
TTITLE3=Tanya Tucker (Duet With Glen Campbell) - Dream Lover
TTITLE4=Ronnie McDowell - It's Only Make Believe
TTITLE5=Conway Twitty - The Rose
TTITLE6=Juice Newton - Angel Of The Morning
TTITLE7=Emmylou Harris - Tennessee Waltz
TTITLE8=T. Graham Brown - Sittin' On The Dock Of The Bay
TTITLE9=Joe Stampley - If You Don't Know Me By Now
EXTD=
EXTT0=
EXTT1=
EXTT2=
EXTT3=
EXTT4=
EXTT5=
EXTT6=
EXTT7=
EXTT8=
EXTT9=
PLAYORDER=
